<?xml version="1.0" encoding="utf-8"?>
<!-- Generator: Adobe Illustrator 25.1.0, SVG Export Plug-In . SVG Version: 6.00 Build 0)  -->
<svg version="1.1" xmlns="http://www.w3.org/2000/svg" xmlns:xlink="http://www.w3.org/1999/xlink" x="0px" y="0px"
	 viewBox="0 0 1920 1080" style="enable-background:new 0 0 1920 1080;" xml:space="preserve">
<style type="text/css">
	.st0{opacity:0.55;fill:#853C8E;enable-background:new    ;}
	.st1{opacity:0.6;fill:#56AE32;enable-background:new    ;}
	.st2{opacity:0.5;fill:#009CC4;enable-background:new    ;}
	.st3{fill:#009DC5;}
	.st4{fill:#56AF31;}
	.st5{fill:#863B8F;}
</style>
<g id="Layer_5">
	<path id="path21_1_" class="st0" d="M116.37,769.23L116.37,769.23c-17.72,0-31.76-14.27-31.76-31.76V608.13
		c0-17.72,14.27-31.76,32.22-31.76l0,0c17.72,0,32.22,14.27,32.22,31.76v129.34C148.36,754.96,133.87,769.23,116.37,769.23z"/>
	<path id="path23_1_" class="st0" d="M34.9,689.14L34.9,689.14c-12.43-12.43-12.43-32.68,0-45.34l58.69-58.69
		c12.43-12.43,32.68-12.43,45.34,0l0,0c12.43,12.43,12.43,32.68,0,45.34l-58.69,58.69C67.58,701.8,47.33,701.8,34.9,689.14z"/>
	<path id="path25_1_" class="st0" d="M93.59,585.35L93.59,585.35c12.43-12.43,32.68-12.43,45.34,0l58.69,58.92
		c12.43,12.43,12.43,32.68,0,45.34l0,0c-12.43,12.43-32.68,12.43-45.34,0l-58.69-58.69C81.39,618.26,81.39,598.01,93.59,585.35z"/>
	<path id="path29_1_" class="st1" d="M248.56,437.72L248.56,437.72c17.72,0,31.76,14.27,31.76,32.22v129.34
		c0,17.72-14.27,32.22-32.22,32.22l0,0c-17.72,0-32.22-14.27-32.22-32.22V469.71C216.57,452.22,231.06,437.72,248.56,437.72z"/>
	<path id="path31_1_" class="st1" d="M151.9,534.38L151.9,534.38c0-17.72,14.27-32.22,31.76-32.22H313
		c17.72,0,31.76,14.27,31.76,31.76l0,0c0,17.72-14.27,31.76-31.76,31.76H183.89C166.16,566.37,151.9,552.1,151.9,534.38z"/>
	<path id="path13_1_" class="st2" d="M280.32,393.77L280.32,393.77c0-17.72,14.27-32.22,31.76-32.22h129.34
		c17.72,0,31.76,14.27,31.76,31.76l0,0c0,17.72-14.27,31.76-31.76,31.76H312.07C294.81,425.99,280.32,411.49,280.32,393.77z"/>
	<path id="path15_1_" class="st2" d="M360.4,312.53L360.4,312.53c12.43-12.43,32.68-12.43,45.34,0l58.69,58.69
		c12.43,12.43,12.43,32.68,0,45.34l0,0c-12.43,12.43-32.68,12.43-45.34,0l-58.69-58.69C347.75,345.21,347.75,324.96,360.4,312.53z"
		/>
	<path id="path17_1_" class="st2" d="M464.43,371.21L464.43,371.21c12.43,12.43,12.43,32.68,0,45.34l-58.69,58.69
		c-12.43,12.43-32.68,12.43-45.34,0l0,0c-12.43-12.43-12.43-32.68,0-45.34l58.69-58.69C431.75,358.79,452,358.79,464.43,371.21z"/>
</g>
<g id="Layer_4">
	<path id="path55_1_" class="st3" d="M1358.78,759c-0.7,3.25-3.72,5.35-6.97,5.35c-3.49,0.23-6.28-2.09-6.74-5.58
		c0-0.23,0-0.23,0-0.46c0.23-2.32,1.16-4.88,1.86-7.2l35.79-95.52c1.86-5.11,4.88-8.83,9.99-8.83c5.35,0,8.6,3.72,9.99,8.83
		l35.79,95.52c1.16,2.32,1.63,4.88,1.86,7.2c0,3.49-3.02,6.04-6.28,6.04c-0.23,0-0.23,0-0.46,0c-3.25,0-6.04-2.09-6.97-5.35
		l-7.44-20.68h-53.45L1358.78,759z M1392.95,663.48L1392.95,663.48L1370.4,726h44.85L1392.95,663.48z"/>
	<path id="path57_1_" class="st3" d="M1499.62,752.03c17.2,0,25.1-10.46,31.14-10.46c3.49,0,5.58,2.56,5.58,6.74
		c0,7.44-16.5,16.04-36.72,16.04c-33.47,0-50.43-28.82-50.43-58.8c0-29.98,17.2-58.8,51.36-58.8c20.45,0,33.47,10.92,33.47,16.73
		c0.23,3.49-2.09,6.28-5.58,6.74h-0.23c-6.28,0-9.76-11.39-27.66-11.39c-25.57,0-36.26,24.17-36.26,46.48
		C1464.3,727.63,1475.22,752.03,1499.62,752.03z"/>
	<path id="path59_1_" class="st3" d="M1576.78,661.39h-21.61c-3.72,0-6.74-3.02-6.74-6.74c0-3.72,3.02-6.74,6.74-6.74h57.41
		c3.72,0,6.74,3.02,6.74,6.74c0,3.72-3.02,6.74-6.74,6.74h-21.61v95.52c0.23,3.95-2.56,7.44-6.74,7.44
		c-3.95,0.23-7.44-2.56-7.44-6.74c0-0.23,0-0.46,0-0.7V661.39L1576.78,661.39z"/>
	<path id="path61_1_" class="st3" d="M1650.23,756.91c0.23,3.95-2.56,7.44-6.74,7.44c-3.95,0.23-7.44-2.56-7.44-6.74
		c0-0.23,0-0.46,0-0.7V654.89c-0.23-3.95,2.56-7.44,6.74-7.44c3.95-0.23,7.44,2.56,7.44,6.74c0,0.23,0,0.46,0,0.7V756.91z"/>
	<path id="path63_1_" class="st3" d="M1722.5,646.98c33,0,50.43,28.82,50.43,58.8s-17.9,58.8-50.43,58.8
		c-32.77,0-50.43-28.82-50.43-58.8S1689.5,646.98,1722.5,646.98z M1722.5,752.03c26.03,0,35.33-24.17,35.33-46.48
		s-9.3-46.48-35.33-46.48s-35.33,24.17-35.33,46.48S1696.47,752.03,1722.5,752.03z"/>
	<path id="path65_1_" class="st3" d="M1809.19,756.91c0.23,3.95-2.56,7.44-6.74,7.44c-3.95,0.23-7.44-2.56-7.44-6.74
		c0-0.23,0-0.46,0-0.7V655.58c0-5.58,1.86-8.6,6.28-8.6c4.42,0,6.04,1.86,9.99,7.44l58.57,83.67h0.23v-83.67
		c-0.23-3.95,2.56-7.44,6.74-7.44c3.95-0.23,7.44,2.56,7.44,6.74c0,0.23,0,0.46,0,0.7v101.33c0,5.58-1.86,8.6-6.28,8.6
		c-4.42,0-6.04-1.86-9.99-7.44l-58.57-83.67h-0.23V756.91z"/>
</g>
<g id="Layer_3">
	<path id="path43_1_" class="st4" d="M760.29,755.75c0,5.58-2.56,8.6-7.2,8.6c-4.42,0-7.2-3.02-7.2-8.6v-99.94
		c0-5.58,2.56-8.6,7.2-8.6c4.42,0,7.2,3.02,7.2,8.6v43.93h60.89v-43.93c0-5.58,2.56-8.6,7.2-8.6s7.2,3.02,7.2,8.6v100.17
		c0,5.58-2.56,8.6-7.2,8.6s-7.2-3.02-7.2-8.6v-44.16h-60.89V755.75z"/>
	<path id="path45_1_" class="st4" d="M876.5,750.17h34.4c3.72,0,6.74,3.02,6.74,6.74c0,3.72-3.02,6.74-6.74,6.74h-40.9
		c-3.95,0.23-7.2-2.32-7.67-6.28c0-0.46,0-1.16,0-1.39v-99.94c-0.46-3.72,2.32-7.44,6.04-7.67c0.46,0,1.16,0,1.39,0h40.9
		c3.72,0,6.74,3.02,6.74,6.74c0,3.72-3.02,6.74-6.74,6.74h-34.4v37.65h31.38c3.72,0,6.74,3.02,6.74,6.74s-3.02,6.74-6.74,6.74
		h-31.38v37.65h0.23L876.5,750.17L876.5,750.17z"/>
	<path id="path47_1_" class="st4" d="M947.38,759c-0.7,3.25-3.72,5.35-6.97,5.35c-3.49,0.23-6.28-2.09-6.74-5.58
		c0-0.23,0-0.23,0-0.46c0.23-2.32,1.16-4.88,1.86-7.2l35.79-95.52c1.86-5.11,4.88-8.83,9.99-8.83c5.11,0,8.6,3.72,9.99,8.83
		l35.79,95.52c1.16,2.32,1.63,4.88,1.86,7.2c0,3.49-3.02,6.04-6.28,6.04c-0.23,0-0.23,0-0.46,0c-3.25,0-6.04-2.09-6.97-5.35
		l-7.44-20.68h-53.45L947.38,759z M982.01,663.48h-0.23L959.47,726h44.62L982.01,663.48z"/>
	<path id="path49_1_" class="st4" d="M1061.26,750.17h30.68c3.72,0,6.74,3.02,6.74,6.74c0,3.72-3.02,6.74-6.74,6.74h-37.19
		c-3.95,0.23-7.2-2.32-7.67-6.28c0-0.46,0-1.16,0-1.39v-101.1c-0.23-3.95,2.56-7.44,6.74-7.44c3.95-0.23,7.44,2.56,7.44,6.74
		c0,0.23,0,0.46,0,0.7L1061.26,750.17L1061.26,750.17z"/>
	<path id="path51_1_" class="st4" d="M1124.48,661.39h-21.61c-3.72,0-6.74-3.02-6.74-6.74c0-3.72,3.02-6.74,6.74-6.74h57.41
		c3.72,0,6.74,3.02,6.74,6.74c0,3.72-3.02,6.74-6.74,6.74h-21.61v95.52c0.23,3.95-2.56,7.44-6.74,7.44
		c-3.95,0.23-7.44-2.56-7.44-6.74c0-0.23,0-0.46,0-0.7L1124.48,661.39L1124.48,661.39z"/>
	<path id="path53_1_" class="st4" d="M1198.15,755.75c0,5.58-2.56,8.6-7.2,8.6s-7.2-3.02-7.2-8.6v-99.94c0-5.58,2.56-8.6,7.2-8.6
		s7.2,3.02,7.2,8.6v43.93h60.89v-43.93c0-5.58,2.56-8.6,7.2-8.6s7.2,3.02,7.2,8.6v100.17c0,5.58-2.56,8.6-7.2,8.6s-7.2-3.02-7.2-8.6
		v-44.16h-60.89L1198.15,755.75L1198.15,755.75z"/>
</g>
<g id="Layer_2">
	<path id="path35_1_" class="st5" d="M308.2,755.63c0,5.58-2.56,8.6-7.2,8.6s-7.2-3.02-7.2-8.6V655.7c0-5.58,2.56-8.6,7.2-8.6
		s7.2,3.02,7.2,8.6v43.93h60.89V655.7c0-5.58,2.56-8.6,7.2-8.6s7.2,3.02,7.2,8.6v100.17c0,5.58-2.56,8.6-7.2,8.6s-7.2-3.02-7.2-8.6
		v-44.16H308.2C308.2,711.71,308.2,755.63,308.2,755.63z"/>
	<path id="path37_1_" class="st5" d="M455.55,646.87c33,0,50.43,28.82,50.43,58.8c0,29.98-17.66,58.8-50.43,58.8
		s-50.67-28.59-50.67-58.8C404.88,675.45,422.54,646.87,455.55,646.87z M455.55,751.92c26.03,0,35.33-24.17,35.33-46.48
		c0-22.31-9.3-46.48-35.33-46.48c-26.03,0-35.33,24.17-35.33,46.48C419.99,727.75,429.75,751.92,455.55,751.92z"/>
	<path id="path39_1_" class="st5" d="M542.47,756.8c0.23,3.95-2.56,7.44-6.74,7.44c-3.95,0.23-7.44-2.56-7.44-6.74
		c0-0.23,0-0.46,0-0.7V655.7c-0.46-3.72,2.32-7.44,6.04-7.67c0.46,0,1.16,0,1.39,0h28.12c23.24,0,37.42,16.27,37.42,36.49
		c0,19.99-16.04,35.79-35.79,35.79c-0.23,0-0.7,0-1.16,0h-22.08L542.47,756.8L542.47,756.8z M542.47,707.76h20.92
		c12.78,0.23,23.47-9.53,23.71-22.31c0-0.46,0-0.7,0-1.39c0-11.39-6.28-23.94-24.17-23.94h-20.45V707.76L542.47,707.76z"/>
	<path id="path41_1_" class="st5" d="M632.41,750.06h34.4c3.72,0,6.74,3.02,6.74,6.74c0,3.72-3.02,6.74-6.74,6.74h-40.9
		c-3.95,0.23-7.2-2.32-7.67-6.28c0-0.46,0-1.16,0-1.39v-99.94c-0.46-3.72,2.32-7.44,6.04-7.67c0.46,0,1.16,0,1.39,0h40.9
		c3.72,0,6.74,3.02,6.74,6.74c0,3.72-3.02,6.74-6.74,6.74h-34.4v37.65h31.38c3.72,0,6.74,3.02,6.74,6.74s-3.02,6.74-6.74,6.74
		h-31.38v37.65h0.23V750.06z"/>
</g>
</svg>
