<?xml version="1.0" encoding="utf-8"?>
<!-- Generator: Adobe Illustrator 24.1.2, SVG Export Plug-In . SVG Version: 6.00 Build 0)  -->
<svg version="1.1"
	 id="Shapes_base" inkscape:version="0.48.4 r9939" sodipodi:docname="logo-haiti.svg" xmlns:cc="http://creativecommons.org/ns#" xmlns:dc="http://purl.org/dc/elements/1.1/" xmlns:inkscape="http://www.inkscape.org/namespaces/inkscape" xmlns:rdf="http://www.w3.org/1999/02/22-rdf-syntax-ns#" xmlns:sodipodi="http://sodipodi.sourceforge.net/DTD/sodipodi-0.dtd" xmlns:svg="http://www.w3.org/2000/svg"
	 xmlns="http://www.w3.org/2000/svg" xmlns:xlink="http://www.w3.org/1999/xlink" x="0px" y="0px" viewBox="0 0 800 215"
	 style="enable-background:new 0 0 800 215;" xml:space="preserve">
<style type="text/css">
	.st0{fill:#FFFFFF;}
	.st1{opacity:0.5;fill:#009DC5;enable-background:new    ;}
	.st2{fill:#009DC5;}
	.st3{opacity:0.55;fill:#863B8F;enable-background:new    ;}
	.st4{fill:#863B8F;}
	.st5{opacity:0.6;fill:#56AF31;enable-background:new    ;}
	.st6{fill:#56AF31;}
</style>
<sodipodi:namedview  bordercolor="#666666" borderopacity="1" gridtolerance="10" guidetolerance="10" id="namedview67" inkscape:current-layer="Shapes_base" inkscape:cx="250.25869" inkscape:cy="85.683995" inkscape:pageopacity="0" inkscape:pageshadow="2" inkscape:window-height="879" inkscape:window-maximized="0" inkscape:window-width="1253" inkscape:window-x="0" inkscape:window-y="24" inkscape:zoom="1.0961015" objecttolerance="10" pagecolor="#ffffff" showgrid="false">
	</sodipodi:namedview>
<path id="path7" class="st0" d="M185.7,40.1l-25.5-25.5c-5.4-5.4-14.2-5.5-19.7,0l0,0l0,0c-5.4,5.4-5.5,14.2,0,19.7l0,0l1.8,1.8
	h-22.7c-7.7,0-13.8,6.2-13.8,13.8l0,0c0,7.7,6.2,13.8,13.8,13.8h22.7l-1.8,1.8c-5.4,5.4-5.5,14.2,0,19.7l0,0l0,0
	c5.4,5.4,14.2,5.5,19.7,0l0,0l25.5-25.6C191,54.3,191,45.6,185.7,40.1z"/>
<path id="path9" class="st0" d="M74.8,151.2l-25.5-25.5c-5.5-5.4-14.3-5.4-19.7,0L4.1,151.2c-5.4,5.4-5.4,14.2,0,19.7
	s14.2,5.4,19.7,0l1.8-1.8v22.7c0,7.7,6.2,13.8,14,13.8s14-6.2,14-13.8V169l1.8,1.8c5.4,5.4,14.2,5.5,19.7,0l0,0l0,0
	C80.3,165.4,80.3,156.6,74.8,151.2C74.9,151.2,74.9,151.2,74.8,151.2z"/>
<path id="path11" class="st0" d="M122.8,91.8h-14.2V77.6c0-7.7-6.2-13.8-13.8-14c-7.7,0-14,6.2-14,14l0,0v14.2H66.6
	c-7.7,0-13.8,6.3-13.8,14s6.2,13.8,13.8,13.8h14.2v14.2c0,7.7,6.2,13.8,13.8,13.8s14-6.2,14-13.8v-14.2h14.2c7.7,0,13.8-6.3,13.8-14
	C136.7,98,130.4,91.8,122.8,91.8z"/>
<path id="path13" class="st1" d="M105.7,49.9L105.7,49.9c0-7.7,6.2-14,13.8-14h56.2c7.7,0,13.8,6.2,13.8,13.8l0,0
	c0,7.7-6.2,13.8-13.8,13.8h-56.2C112,63.9,105.7,57.6,105.7,49.9z"/>
<path id="path15" class="st1" d="M140.5,14.6L140.5,14.6c5.4-5.4,14.2-5.4,19.7,0l25.5,25.5c5.4,5.4,5.4,14.2,0,19.7l0,0
	c-5.4,5.4-14.2,5.4-19.7,0l-25.5-25.5C135,28.8,135,20,140.5,14.6z"/>
<path id="path17" class="st1" d="M185.7,40.1L185.7,40.1c5.4,5.4,5.4,14.2,0,19.7l-25.5,25.5c-5.4,5.4-14.2,5.4-19.7,0l0,0
	c-5.4-5.4-5.4-14.2,0-19.7L166,40.1C171.5,34.7,180.3,34.7,185.7,40.1z"/>
<path id="path19" class="st2" d="M189.7,49.9L189.7,49.9c0-5-2.7-9.7-7.2-12.1l-0.1-0.1c-0.2-0.1-0.6-0.2-0.8-0.5l-0.5-0.2l-0.6-0.2
	c-0.2-0.1-0.5-0.2-0.7-0.2l-0.2-0.1c-4.8-1.4-10,0-13.5,3.5l-9.8,9.8l9.8,9.8c3.9,3.9,9.7,5.1,14.9,3.1l0.2-0.1
	c0.2-0.1,0.5-0.2,0.7-0.3l0.6-0.2l0.5-0.2c0.2-0.1,0.6-0.3,0.8-0.5l0,0C187.5,58.9,189.8,54.6,189.7,49.9z"/>
<path id="path21" class="st3" d="M39.5,205.5L39.5,205.5c-7.7,0-13.8-6.2-13.8-13.8v-56.2c0-7.7,6.2-13.8,14-13.8l0,0
	c7.7,0,14,6.2,14,13.8v56.2C53.4,199.3,47.1,205.5,39.5,205.5z"/>
<path id="path23" class="st3" d="M4.1,170.7L4.1,170.7c-5.4-5.4-5.4-14.2,0-19.7l25.5-25.5c5.4-5.4,14.2-5.4,19.7,0l0,0
	c5.4,5.4,5.4,14.2,0,19.7l-25.5,25.5C18.3,176.2,9.5,176.2,4.1,170.7z"/>
<path id="path25" class="st3" d="M29.6,125.6L29.6,125.6c5.4-5.4,14.2-5.4,19.7,0l25.5,25.6c5.4,5.4,5.4,14.2,0,19.7l0,0
	c-5.4,5.4-14.2,5.4-19.7,0l-25.5-25.5C24.3,139.9,24.3,131.1,29.6,125.6z"/>
<path id="path27" class="st4" d="M39.5,121.6c-5,0-9.7,2.7-12.1,7.2l-0.1,0.1c-0.1,0.2-0.2,0.6-0.3,0.8c-0.1,0.2-0.1,0.2-0.2,0.5
	s-0.1,0.3-0.2,0.6c-0.1,0.2-0.2,0.5-0.2,0.7s0,0.2-0.1,0.2c-1.4,4.8,0,10,3.5,13.5l9.8,9.8l9.7-9.8c3.9-3.9,5.1-9.7,3.1-14.9
	l-0.1-0.2c-0.1-0.2-0.2-0.5-0.3-0.7s-0.1-0.3-0.2-0.6s-0.2-0.2-0.2-0.5s-0.3-0.6-0.5-0.8l0,0C48.4,123.8,44,121.6,39.5,121.6z"/>
<path id="path29" class="st5" d="M94.7,63.7L94.7,63.7c7.7,0,13.8,6.2,13.8,14v56.2c0,7.7-6.2,14-14,14l0,0c-7.7,0-14-6.2-14-14
	V77.6C80.8,70,87.1,63.7,94.7,63.7z"/>
<path id="path31" class="st5" d="M52.7,105.7L52.7,105.7c0-7.7,6.2-14,13.8-14h56.2c7.7,0,13.8,6.2,13.8,13.8l0,0
	c0,7.7-6.2,13.8-13.8,13.8H66.6C58.9,119.6,52.7,113.4,52.7,105.7z"/>
<rect id="rect33" x="80.8" y="91.8" class="st6" width="27.8" height="27.8"/>
<path id="path35" class="st4" d="M121.4,200c0,2.4-1.1,3.7-3.1,3.7s-3.1-1.3-3.1-3.7v-43c0-2.4,1.1-3.7,3.1-3.7s3.1,1.3,3.1,3.7
	v18.9h26.2V157c0-2.4,1.1-3.7,3.1-3.7s3.1,1.3,3.1,3.7v43.1c0,2.4-1.1,3.7-3.1,3.7s-3.1-1.3-3.1-3.7v-19h-26.2
	C121.4,181.1,121.4,200,121.4,200z"/>
<path id="path37" class="st4" d="M184.8,153.2c14.2,0,21.7,12.4,21.7,25.3s-7.6,25.3-21.7,25.3S163,191.5,163,178.5
	S170.6,153.2,184.8,153.2z M184.8,198.4c11.2,0,15.2-10.4,15.2-20s-4-20-15.2-20s-15.2,10.4-15.2,20
	C169.5,188,173.7,198.4,184.8,198.4z"/>
<path id="path39" class="st4" d="M222.2,200.5c0.1,1.7-1.1,3.2-2.9,3.2c-1.7,0.1-3.2-1.1-3.2-2.9c0-0.1,0-0.2,0-0.3V157
	c-0.2-1.6,1-3.2,2.6-3.3c0.2,0,0.5,0,0.6,0h12.1c10,0,16.1,7,16.1,15.7c0,8.6-6.9,15.4-15.4,15.4c-0.1,0-0.3,0-0.5,0h-9.5
	L222.2,200.5L222.2,200.5z M222.2,179.4h9c5.5,0.1,10.1-4.1,10.2-9.6c0-0.2,0-0.3,0-0.6c0-4.9-2.7-10.3-10.4-10.3h-8.8V179.4
	L222.2,179.4z"/>
<path id="path41" class="st4" d="M260.9,197.6h14.8c1.6,0,2.9,1.3,2.9,2.9c0,1.6-1.3,2.9-2.9,2.9h-17.6c-1.7,0.1-3.1-1-3.3-2.7
	c0-0.2,0-0.5,0-0.6v-43c-0.2-1.6,1-3.2,2.6-3.3c0.2,0,0.5,0,0.6,0h17.6c1.6,0,2.9,1.3,2.9,2.9c0,1.6-1.3,2.9-2.9,2.9h-14.8v16.2
	h13.5c1.6,0,2.9,1.3,2.9,2.9s-1.3,2.9-2.9,2.9h-13.5v16.2h0.1V197.6z"/>
<path id="path43" class="st6" d="M317,200c0,2.4-1.1,3.7-3.1,3.7c-1.9,0-3.1-1.3-3.1-3.7v-43c0-2.4,1.1-3.7,3.1-3.7
	c1.9,0,3.1,1.3,3.1,3.7v18.9h26.2V157c0-2.4,1.1-3.7,3.1-3.7s3.1,1.3,3.1,3.7v43.1c0,2.4-1.1,3.7-3.1,3.7s-3.1-1.3-3.1-3.7v-19H317
	V200z"/>
<path id="path45" class="st6" d="M367,197.6h14.8c1.6,0,2.9,1.3,2.9,2.9c0,1.6-1.3,2.9-2.9,2.9h-17.6c-1.7,0.1-3.1-1-3.3-2.7
	c0-0.2,0-0.5,0-0.6v-43c-0.2-1.6,1-3.2,2.6-3.3c0.2,0,0.5,0,0.6,0h17.6c1.6,0,2.9,1.3,2.9,2.9c0,1.6-1.3,2.9-2.9,2.9h-14.8v16.2
	h13.5c1.6,0,2.9,1.3,2.9,2.9s-1.3,2.9-2.9,2.9h-13.5v16.2h0.1V197.6z"/>
<path id="path47" class="st6" d="M397.5,201.4c-0.3,1.4-1.6,2.3-3,2.3c-1.5,0.1-2.7-0.9-2.9-2.4c0-0.1,0-0.1,0-0.2
	c0.1-1,0.5-2.1,0.8-3.1l15.4-41.1c0.8-2.2,2.1-3.8,4.3-3.8s3.7,1.6,4.3,3.8l15.4,41.1c0.5,1,0.7,2.1,0.8,3.1c0,1.5-1.3,2.6-2.7,2.6
	c-0.1,0-0.1,0-0.2,0c-1.4,0-2.6-0.9-3-2.3l-3.2-8.9h-23L397.5,201.4z M412.4,160.3h-0.1l-9.6,26.9h19.2L412.4,160.3z"/>
<path id="path49" class="st6" d="M446.5,197.6h13.2c1.6,0,2.9,1.3,2.9,2.9c0,1.6-1.3,2.9-2.9,2.9h-16c-1.7,0.1-3.1-1-3.3-2.7
	c0-0.2,0-0.5,0-0.6v-43.5c-0.1-1.7,1.1-3.2,2.9-3.2c1.7-0.1,3.2,1.1,3.2,2.9c0,0.1,0,0.2,0,0.3L446.5,197.6L446.5,197.6z"/>
<path id="path51" class="st6" d="M473.7,159.4h-9.3c-1.6,0-2.9-1.3-2.9-2.9s1.3-2.9,2.9-2.9h24.7c1.6,0,2.9,1.3,2.9,2.9
	s-1.3,2.9-2.9,2.9h-9.3v41.1c0.1,1.7-1.1,3.2-2.9,3.2c-1.7,0.1-3.2-1.1-3.2-2.9c0-0.1,0-0.2,0-0.3L473.7,159.4L473.7,159.4z"/>
<path id="path53" class="st6" d="M505.4,200c0,2.4-1.1,3.7-3.1,3.7s-3.1-1.3-3.1-3.7v-43c0-2.4,1.1-3.7,3.1-3.7s3.1,1.3,3.1,3.7
	v18.9h26.2V157c0-2.4,1.1-3.7,3.1-3.7s3.1,1.3,3.1,3.7v43.1c0,2.4-1.1,3.7-3.1,3.7s-3.1-1.3-3.1-3.7v-19h-26.2L505.4,200L505.4,200z
	"/>
<path id="path55" class="st2" d="M573.4,201.4c-0.3,1.4-1.6,2.3-3,2.3c-1.5,0.1-2.7-0.9-2.9-2.4c0-0.1,0-0.1,0-0.2
	c0.1-1,0.5-2.1,0.8-3.1l15.4-41.1c0.8-2.2,2.1-3.8,4.3-3.8c2.3,0,3.7,1.6,4.3,3.8l15.4,41.1c0.5,1,0.7,2.1,0.8,3.1
	c0,1.5-1.3,2.6-2.7,2.6c-0.1,0-0.1,0-0.2,0c-1.4,0-2.6-0.9-3-2.3l-3.2-8.9h-23L573.4,201.4z M588.1,160.3L588.1,160.3l-9.7,26.9
	h19.3L588.1,160.3z"/>
<path id="path57" class="st2" d="M634,198.4c7.4,0,10.8-4.5,13.4-4.5c1.5,0,2.4,1.1,2.4,2.9c0,3.2-7.1,6.9-15.8,6.9
	c-14.4,0-21.7-12.4-21.7-25.3c0-12.9,7.4-25.3,22.1-25.3c8.8,0,14.4,4.7,14.4,7.2c0.1,1.5-0.9,2.7-2.4,2.9h-0.1
	c-2.7,0-4.2-4.9-11.9-4.9c-11,0-15.6,10.4-15.6,20S623.5,198.4,634,198.4z"/>
<path id="path59" class="st2" d="M667.2,159.4h-9.3c-1.6,0-2.9-1.3-2.9-2.9s1.3-2.9,2.9-2.9h24.7c1.6,0,2.9,1.3,2.9,2.9
	s-1.3,2.9-2.9,2.9h-9.3v41.1c0.1,1.7-1.1,3.2-2.9,3.2c-1.7,0.1-3.2-1.1-3.2-2.9c0-0.1,0-0.2,0-0.3V159.4L667.2,159.4z"/>
<path id="path61" class="st2" d="M698.8,200.5c0.1,1.7-1.1,3.2-2.9,3.2c-1.7,0.1-3.2-1.1-3.2-2.9c0-0.1,0-0.2,0-0.3v-43.9
	c-0.1-1.7,1.1-3.2,2.9-3.2c1.7-0.1,3.2,1.1,3.2,2.9c0,0.1,0,0.2,0,0.3V200.5z"/>
<path id="path63" class="st2" d="M729.9,153.2c14.2,0,21.7,12.4,21.7,25.3s-7.7,25.3-21.7,25.3c-14.1,0-21.7-12.4-21.7-25.3
	S715.7,153.2,729.9,153.2z M729.9,198.4c11.2,0,15.2-10.4,15.2-20s-4-20-15.2-20s-15.2,10.4-15.2,20S718.7,198.4,729.9,198.4z"/>
<path id="path65" class="st2" d="M767.2,200.5c0.1,1.7-1.1,3.2-2.9,3.2c-1.7,0.1-3.2-1.1-3.2-2.9c0-0.1,0-0.2,0-0.3v-43.6
	c0-2.4,0.8-3.7,2.7-3.7s2.6,0.8,4.3,3.2l25.2,36h0.1v-36c-0.1-1.7,1.1-3.2,2.9-3.2c1.7-0.1,3.2,1.1,3.2,2.9c0,0.1,0,0.2,0,0.3V200
	c0,2.4-0.8,3.7-2.7,3.7s-2.6-0.8-4.3-3.2l-25.2-36h-0.1V200.5z"/>
</svg>
