<?xml version="1.0" encoding="utf-8"?>
<!-- Generator: Adobe Illustrator 25.1.0, SVG Export Plug-In . SVG Version: 6.00 Build 0)  -->
<svg version="1.1" xmlns="http://www.w3.org/2000/svg" xmlns:xlink="http://www.w3.org/1999/xlink" x="0px" y="0px"
	 viewBox="0 0 400 400" style="enable-background:new 0 0 400 400;" xml:space="preserve">
<style type="text/css">
	.st0{opacity:0.55;fill:#863D8F;enable-background:new    ;}
	.st1{display:none;}
	.st2{display:inline;opacity:0.6;fill:#57B033;enable-background:new    ;}
	.st3{display:inline;opacity:0.5;fill:#009DC6;enable-background:new    ;}
</style>
<g id="Layer_1">
	<path id="path21" class="st0" d="M97.98,373.45L97.98,373.45c-13.7,0-24.56-11.03-24.56-24.56v-100c0-13.7,11.03-24.56,24.91-24.56
		l0,0c13.7,0,24.91,11.03,24.91,24.56v100C122.71,362.41,111.5,373.45,97.98,373.45z"/>
	<path id="path23" class="st0" d="M34.99,311.52L34.99,311.52c-9.61-9.61-9.61-25.27,0-35.05l45.37-45.37
		c9.61-9.61,25.27-9.61,35.05,0l0,0c9.61,9.61,9.61,25.27,0,35.05l-45.37,45.37C60.26,321.31,44.6,321.31,34.99,311.52z"/>
	<path id="path25" class="st0" d="M80.36,231.27L80.36,231.27c9.61-9.61,25.27-9.61,35.05,0l45.37,45.55
		c9.61,9.61,9.61,25.27,0,35.05l0,0c-9.61,9.61-25.27,9.61-35.05,0L80.36,266.5C70.93,256.72,70.93,241.06,80.36,231.27z"/>
</g>
<g id="Layer_2" class="st1">
	<path id="path29" class="st2" d="M200.18,117.13L200.18,117.13c13.7,0,24.56,11.03,24.56,24.91v100c0,13.7-11.03,24.91-24.91,24.91
		l0,0c-13.7,0-24.91-11.03-24.91-24.91V141.86C175.44,128.34,186.65,117.13,200.18,117.13z"/>
	<path id="path31" class="st2" d="M125.44,191.86L125.44,191.86c0-13.7,11.03-24.91,24.56-24.91h100c13.7,0,24.56,11.03,24.56,24.56
		l0,0c0,13.7-11.03,24.56-24.56,24.56h-99.82C136.48,216.6,125.44,205.57,125.44,191.86z"/>
</g>
<g id="Layer_3" class="st1">
	<path id="path13" class="st3" d="M224.73,83.15L224.73,83.15c0-13.7,11.03-24.91,24.56-24.91h100c13.7,0,24.56,11.03,24.56,24.56
		l0,0c0,13.7-11.03,24.56-24.56,24.56h-100C235.94,108.06,224.73,96.85,224.73,83.15z"/>
	<path id="path15" class="st3" d="M286.66,20.34L286.66,20.34c9.61-9.61,25.27-9.61,35.05,0l45.37,45.37
		c9.61,9.61,9.61,25.27,0,35.05l0,0c-9.61,9.61-25.27,9.61-35.05,0l-45.37-45.37C276.87,45.6,276.87,29.94,286.66,20.34z"/>
	<path id="path17" class="st3" d="M367.08,65.71L367.08,65.71c9.61,9.61,9.61,25.27,0,35.05l-45.37,45.37
		c-9.61,9.61-25.27,9.61-35.05,0l0,0c-9.61-9.61-9.61-25.27,0-35.05l45.37-45.37C341.82,56.1,357.48,56.1,367.08,65.71z"/>
</g>
</svg>
