<?xml version="1.0" encoding="UTF-8" standalone="no"?>
<!-- Created with Inkscape (http://www.inkscape.org/) -->

<svg
   version="1.1"
   id="svg2"
   width="533.33331"
   height="533.33331"
   viewBox="0 0 533.33331 533.33331"
   sodipodi:docname="Logo.ai"
   xmlns:inkscape="http://www.inkscape.org/namespaces/inkscape"
   xmlns:sodipodi="http://sodipodi.sourceforge.net/DTD/sodipodi-0.dtd"
   xmlns="http://www.w3.org/2000/svg"
   xmlns:svg="http://www.w3.org/2000/svg">
  <defs
     id="defs6">
    <clipPath
       clipPathUnits="userSpaceOnUse"
       id="clipPath16">
      <path
         d="M 0,400 H 400 V 0 H 0 Z"
         id="path14" />
    </clipPath>
    <clipPath
       clipPathUnits="userSpaceOnUse"
       id="clipPath24">
      <path
         d="M 73.4243,175.667 H 123.247 V 26.5538 H 73.4243 Z"
         id="path22" />
    </clipPath>
    <clipPath
       clipPathUnits="userSpaceOnUse"
       id="clipPath40">
      <path
         d="M 27.7829,176.112 H 122.624 V 81.1367 H 27.7829 Z"
         id="path38" />
    </clipPath>
    <clipPath
       clipPathUnits="userSpaceOnUse"
       id="clipPath56">
      <path
         d="M 73.2908,175.934 H 167.999 V 80.9142 H 73.2908 Z"
         id="path54" />
    </clipPath>
    <clipPath
       clipPathUnits="userSpaceOnUse"
       id="clipPath72">
      <path
         d="M 0,400 H 400 V 0 H 0 Z"
         id="path70" />
    </clipPath>
    <clipPath
       clipPathUnits="userSpaceOnUse"
       id="clipPath80">
      <path
         d="m 174.911,282.87 h 49.823 V 133.046 h -49.823 z"
         id="path78" />
    </clipPath>
    <clipPath
       clipPathUnits="userSpaceOnUse"
       id="clipPath96">
      <path
         d="M 125.443,233.047 H 274.556 V 183.918 H 125.443 Z"
         id="path94" />
    </clipPath>
    <clipPath
       clipPathUnits="userSpaceOnUse"
       id="clipPath112">
      <path
         d="M 0,400 H 400 V 0 H 0 Z"
         id="path110" />
    </clipPath>
    <clipPath
       clipPathUnits="userSpaceOnUse"
       id="clipPath120">
      <path
         d="M 224.734,341.764 H 373.847 V 292.621 H 224.734 Z"
         id="path118" />
    </clipPath>
    <clipPath
       clipPathUnits="userSpaceOnUse"
       id="clipPath136">
      <path
         d="m 279.316,386.871 h 94.975 V 292.03 h -94.975 z"
         id="path134" />
    </clipPath>
    <clipPath
       clipPathUnits="userSpaceOnUse"
       id="clipPath152">
      <path
         d="m 279.45,341.497 h 94.841 V 246.655 H 279.45 Z"
         id="path150" />
    </clipPath>
  </defs>
  <sodipodi:namedview
     id="namedview4"
     pagecolor="#ffffff"
     bordercolor="#000000"
     borderopacity="0.25"
     inkscape:showpageshadow="2"
     inkscape:pageopacity="0.0"
     inkscape:pagecheckerboard="0"
     inkscape:deskcolor="#d1d1d1" />
  <g
     id="g8"
     inkscape:groupmode="layer"
     inkscape:label="Logo"
     transform="matrix(1.3333333,0,0,-1.3333333,0,533.33333)">
    <g
       id="g10">
      <g
         id="g12"
         clip-path="url(#clipPath16)">
        <g
           id="g18">
          <g
             id="g20" />
          <g
             id="g32">
            <g
               clip-path="url(#clipPath24)"
               opacity="0.550003"
               id="g30">
              <g
                 transform="translate(97.98,26.5537)"
                 id="g28">
                <path
                   d="m 0,0 v 0 c -13.702,0 -24.556,11.032 -24.556,24.556 v 100.002 c 0,13.701 11.033,24.555 24.912,24.555 13.701,0 24.911,-11.032 24.911,-24.555 V 24.556 C 24.733,11.032 13.523,0 0,0"
                   style="fill:#7c359d;fill-opacity:1;fill-rule:nonzero;stroke:none"
                   id="path26" />
              </g>
            </g>
          </g>
        </g>
        <g
           id="g34">
          <g
             id="g36" />
          <g
             id="g48">
            <g
               clip-path="url(#clipPath40)"
               opacity="0.550003"
               id="g46">
              <g
                 transform="translate(34.9893,88.4766)"
                 id="g44">
                <path
                   d="m 0,0 v 0 c -9.608,9.608 -9.608,25.268 0,35.054 l 45.375,45.375 c 9.608,9.608 25.267,9.608 35.054,0 9.609,-9.609 9.609,-25.268 0,-35.054 L 35.054,0 C 25.268,-9.786 9.609,-9.786 0,0"
                   style="fill:#7c359d;fill-opacity:1;fill-rule:nonzero;stroke:none"
                   id="path42" />
              </g>
            </g>
          </g>
        </g>
        <g
           id="g50">
          <g
             id="g52" />
          <g
             id="g64">
            <g
               clip-path="url(#clipPath56)"
               opacity="0.550003"
               id="g62">
              <g
                 transform="translate(80.3638,168.7275)"
                 id="g60">
                <path
                   d="m 0,0 v 0 c 9.609,9.608 25.268,9.608 35.054,0 l 45.375,-45.553 c 9.608,-9.608 9.608,-25.267 0,-35.053 -9.609,-9.61 -25.268,-9.61 -35.054,0 L 0,-35.232 C -9.431,-25.445 -9.431,-9.787 0,0"
                   style="fill:#7c359d;fill-opacity:1;fill-rule:nonzero;stroke:none"
                   id="path58" />
              </g>
            </g>
          </g>
        </g>
      </g>
    </g>
    <g
       id="g66">
      <g
         id="g68"
         clip-path="url(#clipPath72)">
        <g
           id="g74">
          <g
             id="g76" />
          <g
             id="g88">
            <g
               clip-path="url(#clipPath80)"
               opacity="0.600006"
               id="g86">
              <g
                 transform="translate(200.1777,282.8706)"
                 id="g84">
                <path
                   d="m 0,0 v 0 c 13.701,0 24.556,-11.032 24.556,-24.912 v -100.002 c 0,-13.701 -11.033,-24.911 -24.911,-24.911 -13.702,0 -24.912,11.033 -24.912,24.911 v 100.18 C -24.733,-11.21 -13.523,0 0,0"
                   style="fill:#50be39;fill-opacity:1;fill-rule:nonzero;stroke:none"
                   id="path82" />
              </g>
            </g>
          </g>
        </g>
        <g
           id="g90">
          <g
             id="g92" />
          <g
             id="g104">
            <g
               clip-path="url(#clipPath96)"
               opacity="0.600006"
               id="g102">
              <g
                 transform="translate(125.4434,208.1357)"
                 id="g100">
                <path
                   d="m 0,0 v 0 c 0,13.702 11.032,24.912 24.556,24.912 h 100.002 c 13.701,0 24.555,-11.033 24.555,-24.556 0,-13.702 -11.032,-24.555 -24.555,-24.555 H 24.734 C 11.032,-24.733 0,-13.701 0,0"
                   style="fill:#50be39;fill-opacity:1;fill-rule:nonzero;stroke:none"
                   id="path98" />
              </g>
            </g>
          </g>
        </g>
      </g>
    </g>
    <g
       id="g106">
      <g
         id="g108"
         clip-path="url(#clipPath112)">
        <g
           id="g114">
          <g
             id="g116" />
          <g
             id="g128">
            <g
               clip-path="url(#clipPath120)"
               opacity="0.5"
               id="g126">
              <g
                 transform="translate(224.7334,316.8525)"
                 id="g124">
                <path
                   d="m 0,0 v 0 c 0,13.701 11.032,24.911 24.556,24.911 h 100.002 c 13.701,0 24.555,-11.032 24.555,-24.555 0,-13.702 -11.032,-24.556 -24.555,-24.556 H 24.556 C 11.21,-24.912 0,-13.702 0,0"
                   style="fill:#40a2c7;fill-opacity:1;fill-rule:nonzero;stroke:none"
                   id="path122" />
              </g>
            </g>
          </g>
        </g>
        <g
           id="g130">
          <g
             id="g132" />
          <g
             id="g144">
            <g
               clip-path="url(#clipPath136)"
               opacity="0.5"
               id="g142">
              <g
                 transform="translate(286.6562,379.665)"
                 id="g140">
                <path
                   d="m 0,0 v 0 c 9.608,9.608 25.268,9.608 35.054,0 l 45.375,-45.375 c 9.608,-9.608 9.608,-25.267 0,-35.054 -9.609,-9.608 -25.268,-9.608 -35.054,0 L 0,-35.054 C -9.786,-25.268 -9.786,-9.609 0,0"
                   style="fill:#40a2c7;fill-opacity:1;fill-rule:nonzero;stroke:none"
                   id="path138" />
              </g>
            </g>
          </g>
        </g>
        <g
           id="g146">
          <g
             id="g148" />
          <g
             id="g160">
            <g
               clip-path="url(#clipPath152)"
               opacity="0.5"
               id="g158">
              <g
                 transform="translate(367.085,334.2905)"
                 id="g156">
                <path
                   d="m 0,0 v 0 c 9.608,-9.609 9.608,-25.268 0,-35.054 l -45.375,-45.375 c -9.608,-9.608 -25.267,-9.608 -35.054,0 -9.608,9.609 -9.608,25.268 0,35.054 L -35.054,0 C -25.268,9.608 -9.608,9.608 0,0"
                   style="fill:#40a2c7;fill-opacity:1;fill-rule:nonzero;stroke:none"
                   id="path154" />
              </g>
            </g>
          </g>
        </g>
      </g>
    </g>
  </g>
</svg>
