<svg version="1.1" id="svg2" width="2480px" height="625px" viewBox="0 0 2480 625" xmlns="http://www.w3.org/2000/svg">
   <defs id="defs6">
     <clipPath clipPathUnits="userSpaceOnUse" id="clipPath16">
       <path d="M 0,1080 H 1920 V 0 H 0 Z" id="path14"></path>
     </clipPath>
     <clipPath clipPathUnits="userSpaceOnUse" id="clipPath24">
       <path d="M 84.6151,503.626 H 149.055 V 310.767 H 84.6151 Z" id="path22"></path>
     </clipPath>
     <clipPath clipPathUnits="userSpaceOnUse" id="clipPath40">
       <path d="M 25.5836,504.201 H 148.249 V 381.363 H 25.5836 Z" id="path38"></path>
     </clipPath>
     <clipPath clipPathUnits="userSpaceOnUse" id="clipPath56">
       <path d="M 84.4425,503.971 H 206.936 V 381.075 H 84.4425 Z" id="path54"></path>
     </clipPath>
     <clipPath clipPathUnits="userSpaceOnUse" id="clipPath72">
       <path d="m 215.875,642.281 h 64.44 v -193.78 h -64.44 z" id="path70"></path>
     </clipPath>
     <clipPath clipPathUnits="userSpaceOnUse" id="clipPath88">
       <path d="M 151.896,577.841 H 344.755 V 514.297 H 151.896 Z" id="path86"></path>
     </clipPath>
     <clipPath clipPathUnits="userSpaceOnUse" id="clipPath104">
       <path d="M 280.315,718.452 H 473.174 V 654.891 H 280.315 Z" id="path102"></path>
     </clipPath>
     <clipPath clipPathUnits="userSpaceOnUse" id="clipPath120">
       <path d="M 350.911,776.793 H 473.75 V 654.127 H 350.911 Z" id="path118"></path>
     </clipPath>
     <clipPath clipPathUnits="userSpaceOnUse" id="clipPath136">
       <path d="M 351.084,718.107 H 473.75 V 595.441 H 351.084 Z" id="path134"></path>
     </clipPath>
     <clipPath clipPathUnits="userSpaceOnUse" id="clipPath152">
       <path d="M 0,1080 H 1920 V 0 H 0 Z" id="path150"></path>
     </clipPath>
     <clipPath clipPathUnits="userSpaceOnUse" id="clipPath184">
       <path d="M 0,1080 H 1920 V 0 H 0 Z" id="path182"></path>
     </clipPath>
     <clipPath clipPathUnits="userSpaceOnUse" id="clipPath216">
       <path d="M 0,1080 H 1920 V 0 H 0 Z" id="path214"></path>
     </clipPath>
   </defs>
   <g id="g8" transform="matrix(1.334282, 0, 0, -1.341125, -34.135365, 1041.776611)">
     <g id="g10">
       <g id="g12" clip-path="url(#clipPath16)">
         <g id="g18">
           <g id="g20"></g>
           <g id="g32">
             <g clip-path="url(#clipPath24)" opacity="0.550003" id="g30">
               <g transform="translate(116.375,310.7666)" id="g28">
                 <path d="M 0,0 V 0 C -17.721,0 -31.76,14.269 -31.76,31.76 V 161.1 c 0,17.72 14.269,31.759 32.22,31.759 17.721,0 32.22,-14.268 32.22,-31.759 V 31.76 C 31.99,14.269 17.491,0 0,0" style="fill:#853c8e;fill-opacity:1;fill-rule:nonzero;stroke:none" id="path26"></path>
               </g>
             </g>
           </g>
         </g>
         <g id="g34">
           <g id="g36"></g>
           <g id="g48">
             <g clip-path="url(#clipPath40)" opacity="0.550003" id="g46">
               <g transform="translate(34.9043,390.8564)" id="g44">
                 <path d="m 0,0 v 0 c -12.428,12.428 -12.428,32.68 0,45.338 l 58.687,58.686 c 12.427,12.428 32.68,12.428 45.337,0 12.428,-12.427 12.428,-32.68 0,-45.338 L 45.338,0 C 32.68,-12.658 12.428,-12.658 0,0" style="fill:#853c8e;fill-opacity:1;fill-rule:nonzero;stroke:none" id="path42"></path>
               </g>
             </g>
           </g>
         </g>
         <g id="g50">
           <g id="g52"></g>
           <g id="g64">
             <g clip-path="url(#clipPath56)" opacity="0.550003" id="g62">
               <g transform="translate(93.5908,494.6504)" id="g60">
                 <path d="m 0,0 v 0 c 12.428,12.428 32.68,12.428 45.338,0 l 58.686,-58.916 c 12.428,-12.428 12.428,-32.681 0,-45.339 -12.427,-12.428 -32.68,-12.428 -45.338,0 L 0,-45.568 C -12.198,-32.91 -12.198,-12.658 0,0" style="fill:#853c8e;fill-opacity:1;fill-rule:nonzero;stroke:none" id="path58"></path>
               </g>
             </g>
           </g>
         </g>
         <g id="g66">
           <g id="g68"></g>
           <g id="g80">
             <g clip-path="url(#clipPath72)" opacity="0.600006" id="g78">
               <g transform="translate(248.5552,642.2808)" id="g76">
                 <path d="m 0,0 v 0 c 17.721,0 31.76,-14.269 31.76,-32.22 v -129.34 c 0,-17.721 -14.269,-32.22 -32.22,-32.22 -17.721,0 -32.22,14.269 -32.22,32.22 V -31.99 C -31.99,-14.499 -17.491,0 0,0" style="fill:#56ae32;fill-opacity:1;fill-rule:nonzero;stroke:none" id="path74"></path>
               </g>
             </g>
           </g>
         </g>
         <g id="g82">
           <g id="g84"></g>
           <g id="g96">
             <g clip-path="url(#clipPath88)" opacity="0.600006" id="g94">
               <g transform="translate(151.8955,545.6206)" id="g92">
                 <path d="M 0,0 V 0 C 0,17.721 14.269,32.22 31.76,32.22 H 161.1 c 17.721,0 31.759,-14.269 31.759,-31.76 0,-17.72 -14.268,-31.759 -31.759,-31.759 H 31.99 C 14.269,-31.99 0,-17.721 0,0" style="fill:#56ae32;fill-opacity:1;fill-rule:nonzero;stroke:none" id="path90"></path>
               </g>
             </g>
           </g>
         </g>
         <g id="g98">
           <g id="g100"></g>
           <g id="g112">
             <g clip-path="url(#clipPath104)" opacity="0.5" id="g110">
               <g transform="translate(280.3149,686.2319)" id="g108">
                 <path d="M 0,0 V 0 C 0,17.721 14.269,32.22 31.76,32.22 H 161.1 c 17.721,0 31.759,-14.269 31.759,-31.76 0,-17.72 -14.268,-31.759 -31.759,-31.759 H 31.76 C 14.499,-32.22 0,-17.721 0,0" style="fill:#009cc4;fill-opacity:1;fill-rule:nonzero;stroke:none" id="path106"></path>
               </g>
             </g>
           </g>
         </g>
         <g id="g114">
           <g id="g116"></g>
           <g id="g128">
             <g clip-path="url(#clipPath120)" opacity="0.5" id="g126">
               <g transform="translate(360.4048,767.4722)" id="g124">
                 <path d="m 0,0 v 0 c 12.428,12.428 32.68,12.428 45.338,0 l 58.686,-58.686 c 12.428,-12.428 12.428,-32.68 0,-45.338 -12.427,-12.428 -32.68,-12.428 -45.338,0 L 0,-45.338 C -12.658,-32.68 -12.658,-12.427 0,0" style="fill:#009cc4;fill-opacity:1;fill-rule:nonzero;stroke:none" id="path122"></path>
               </g>
             </g>
           </g>
         </g>
         <g id="g130">
           <g id="g132"></g>
           <g id="g144">
             <g clip-path="url(#clipPath136)" opacity="0.5" id="g142">
               <g transform="translate(464.4292,708.7861)" id="g140">
                 <path d="m 0,0 v 0 c 12.427,-12.428 12.427,-32.68 0,-45.338 l -58.687,-58.686 c -12.427,-12.428 -32.68,-12.428 -45.337,0 -12.428,12.427 -12.428,32.68 0,45.337 L -45.338,0 C -32.681,12.428 -12.428,12.428 0,0" style="fill:#009cc4;fill-opacity:1;fill-rule:nonzero;stroke:none" id="path138"></path>
               </g>
             </g>
           </g>
         </g>
       </g>
     </g>
     <g id="g146">
       <g id="g148" clip-path="url(#clipPath152)">
         <g id="g154" transform="translate(1392.9473,416.5156)">
           <path d="m 0,0 v 0 l -22.543,-62.519 h 44.855 z m -34.164,-95.521 c -0.697,-3.253 -3.718,-5.345 -6.972,-5.345 -3.486,-0.233 -6.275,2.092 -6.74,5.578 v 0.465 c 0.232,2.324 1.162,4.881 1.859,7.205 l 35.791,95.52 c 1.86,5.113 4.881,8.831 9.994,8.831 5.345,0 8.599,-3.718 9.994,-8.831 l 35.791,-95.52 c 1.162,-2.324 1.627,-4.881 1.859,-7.205 0,-3.487 -3.021,-6.043 -6.275,-6.043 h -0.465 c -3.254,0 -6.042,2.092 -6.972,5.345 l -7.437,20.685 h -53.454 z" style="fill:#009dc5;fill-opacity:1;fill-rule:nonzero;stroke:none" id="path156"></path>
         </g>
         <g id="g158" transform="translate(1499.624,327.9678)">
           <path d="m 0,0 c 17.198,0 25.1,10.458 31.143,10.458 3.486,0 5.578,-2.557 5.578,-6.739 0,-7.438 -16.501,-16.037 -36.721,-16.037 -33.467,0 -50.433,28.819 -50.433,58.799 0,29.982 17.199,58.8 51.363,58.8 20.452,0 33.466,-10.923 33.466,-16.733 0.233,-3.486 -2.091,-6.276 -5.578,-6.74 h -0.232 c -6.274,0 -9.761,11.388 -27.656,11.388 -25.566,0 -36.256,-24.171 -36.256,-46.482 C -35.326,24.403 -24.403,0 0,0" style="fill:#009dc5;fill-opacity:1;fill-rule:nonzero;stroke:none" id="path160"></path>
         </g>
         <g id="g162" transform="translate(1576.7842,418.6074)">
           <path d="m 0,0 h -21.614 c -3.719,0 -6.74,3.021 -6.74,6.74 0,3.718 3.021,6.739 6.74,6.739 h 57.405 c 3.719,0 6.74,-3.021 6.74,-6.739 C 42.531,3.021 39.51,0 35.791,0 H 14.177 v -95.521 c 0.232,-3.951 -2.557,-7.437 -6.74,-7.437 C 3.486,-103.19 0,-100.401 0,-96.218 v 0.697 z" style="fill:#009dc5;fill-opacity:1;fill-rule:nonzero;stroke:none" id="path164"></path>
         </g>
         <g id="g166" transform="translate(1650.2256,323.0869)">
           <path d="m 0,0 c 0.232,-3.951 -2.557,-7.437 -6.74,-7.437 -3.951,-0.233 -7.438,2.556 -7.438,6.74 V 0 102.028 c -0.232,3.951 2.557,7.437 6.741,7.437 C -3.486,109.697 0,106.908 0,102.726 v -0.698 z" style="fill:#009dc5;fill-opacity:1;fill-rule:nonzero;stroke:none" id="path168"></path>
         </g>
         <g id="g170" transform="translate(1722.5049,327.9678)">
           <path d="M 0,0 C 26.03,0 35.326,24.17 35.326,46.481 35.326,68.793 26.03,92.964 0,92.964 -26.03,92.964 -35.326,68.793 -35.326,46.481 -35.326,24.17 -26.03,0 0,0 m 0,105.049 c 33.002,0 50.433,-28.819 50.433,-58.8 0,-29.98 -17.896,-58.8 -50.433,-58.8 -32.77,0 -50.433,28.82 -50.433,58.8 0,29.981 17.431,58.8 50.433,58.8" style="fill:#009dc5;fill-opacity:1;fill-rule:nonzero;stroke:none" id="path172"></path>
         </g>
         <g id="g174" transform="translate(1809.1934,323.0869)">
           <path d="m 0,0 c 0.232,-3.951 -2.556,-7.437 -6.739,-7.437 -3.951,-0.233 -7.438,2.556 -7.438,6.74 V 0 101.331 c 0,5.577 1.86,8.599 6.276,8.599 4.416,0 6.042,-1.86 9.993,-7.437 L 60.659,18.825 h 0.233 v 83.668 c -0.233,3.95 2.556,7.437 6.74,7.437 3.95,0.232 7.436,-2.557 7.436,-6.74 V 102.493 1.162 c 0,-5.578 -1.859,-8.599 -6.274,-8.599 -4.416,0 -6.043,1.859 -9.994,7.437 L 0.232,83.668 H 0 Z" style="fill:#009dc5;fill-opacity:1;fill-rule:nonzero;stroke:none" id="path176"></path>
         </g>
       </g>
     </g>
     <g id="g178">
       <g id="g180" clip-path="url(#clipPath184)">
         <g id="g186" transform="translate(760.291,324.249)">
           <path d="m 0,0 c 0,-5.578 -2.557,-8.6 -7.205,-8.6 -4.416,0 -7.204,3.022 -7.204,8.6 v 99.937 c 0,5.577 2.556,8.598 7.204,8.598 4.416,0 7.205,-3.021 7.205,-8.598 V 56.011 h 60.892 v 43.926 c 0,5.577 2.556,8.598 7.204,8.598 4.648,0 7.205,-3.021 7.205,-8.598 V -0.232 c 0,-5.579 -2.557,-8.6 -7.205,-8.6 -4.648,0 -7.204,3.021 -7.204,8.6 V 43.926 H 0 Z" style="fill:#56af31;fill-opacity:1;fill-rule:nonzero;stroke:none" id="path188"></path>
         </g>
         <g id="g190" transform="translate(876.4961,329.8271)">
           <path d="m 0,0 h 34.396 c 3.719,0 6.74,-3.021 6.74,-6.74 0,-3.719 -3.021,-6.74 -6.74,-6.74 H -6.508 c -3.95,-0.233 -7.204,2.324 -7.669,6.275 v 1.394 99.937 c -0.465,3.719 2.324,7.437 6.043,7.669 h 1.394 40.904 c 3.719,0 6.74,-3.022 6.74,-6.739 0,-3.719 -3.021,-6.741 -6.74,-6.741 H -0.232 v -37.65 h 31.375 c 3.718,0 6.74,-3.021 6.74,-6.74 0,-3.718 -3.022,-6.739 -6.74,-6.739 H -0.232 V -0.465 H 0 Z" style="fill:#56af31;fill-opacity:1;fill-rule:nonzero;stroke:none" id="path192"></path>
         </g>
         <g id="g194" transform="translate(982.0098,416.5156)">
           <path d="m 0,0 h -0.232 l -22.311,-62.519 h 44.622 z m -34.629,-95.521 c -0.697,-3.253 -3.718,-5.345 -6.972,-5.345 -3.486,-0.233 -6.275,2.092 -6.74,5.578 v 0.465 c 0.233,2.324 1.162,4.881 1.859,7.205 l 35.792,95.52 c 1.859,5.113 4.88,8.831 9.993,8.831 5.113,0 8.599,-3.718 9.994,-8.831 l 35.791,-95.52 c 1.162,-2.324 1.627,-4.881 1.859,-7.205 0,-3.487 -3.021,-6.043 -6.275,-6.043 h -0.465 c -3.254,0 -6.043,2.092 -6.973,5.345 l -7.436,20.685 h -53.455 z" style="fill:#56af31;fill-opacity:1;fill-rule:nonzero;stroke:none" id="path196"></path>
         </g>
         <g id="g198" transform="translate(1061.2617,329.8271)">
           <path d="m 0,0 h 30.678 c 3.718,0 6.74,-3.021 6.74,-6.74 0,-3.719 -3.022,-6.74 -6.74,-6.74 H -6.508 c -3.95,-0.233 -7.204,2.324 -7.669,6.275 v 1.394 101.099 c -0.232,3.95 2.557,7.437 6.74,7.437 C -3.486,102.957 0,100.168 0,95.985 v -0.697 z" style="fill:#56af31;fill-opacity:1;fill-rule:nonzero;stroke:none" id="path200"></path>
         </g>
         <g id="g202" transform="translate(1124.4775,418.6074)">
           <path d="m 0,0 h -21.614 c -3.719,0 -6.74,3.021 -6.74,6.74 0,3.718 3.021,6.739 6.74,6.739 h 57.405 c 3.719,0 6.739,-3.021 6.739,-6.739 C 42.53,3.021 39.51,0 35.791,0 H 14.177 v -95.521 c 0.232,-3.951 -2.557,-7.437 -6.74,-7.437 C 3.486,-103.19 0,-100.401 0,-96.218 v 0.697 z" style="fill:#56af31;fill-opacity:1;fill-rule:nonzero;stroke:none" id="path204"></path>
         </g>
         <g id="g206" transform="translate(1198.1514,324.249)">
           <path d="m 0,0 c 0,-5.578 -2.557,-8.6 -7.205,-8.6 -4.649,0 -7.205,3.022 -7.205,8.6 v 99.937 c 0,5.577 2.556,8.598 7.205,8.598 4.648,0 7.205,-3.021 7.205,-8.598 V 56.011 h 60.891 v 43.926 c 0,5.577 2.556,8.598 7.205,8.598 4.648,0 7.205,-3.021 7.205,-8.598 V -0.232 c 0,-5.579 -2.557,-8.6 -7.205,-8.6 -4.649,0 -7.205,3.021 -7.205,8.6 V 43.926 H 0 Z" style="fill:#56af31;fill-opacity:1;fill-rule:nonzero;stroke:none" id="path208"></path>
         </g>
       </g>
     </g>
     <g id="g210">
       <g id="g212" clip-path="url(#clipPath216)">
         <g id="g218" transform="translate(308.1973,324.3652)">
           <path d="m 0,0 c 0,-5.578 -2.557,-8.6 -7.205,-8.6 -4.648,0 -7.204,3.022 -7.204,8.6 v 99.937 c 0,5.577 2.556,8.598 7.204,8.598 4.648,0 7.205,-3.021 7.205,-8.598 V 56.011 h 60.892 v 43.926 c 0,5.577 2.556,8.598 7.204,8.598 4.648,0 7.205,-3.021 7.205,-8.598 V -0.232 c 0,-5.579 -2.557,-8.6 -7.205,-8.6 -4.648,0 -7.204,3.021 -7.204,8.6 V 43.926 H 0 Z" style="fill:#863b8f;fill-opacity:1;fill-rule:nonzero;stroke:none" id="path220"></path>
         </g>
         <g id="g222" transform="translate(455.5449,328.084)">
           <path d="M 0,0 C 26.03,0 35.327,24.171 35.327,46.481 35.327,68.793 26.03,92.964 0,92.964 -26.03,92.964 -35.326,68.793 -35.326,46.481 -35.559,24.171 -25.797,0 0,0 m 0,105.049 c 33.002,0 50.433,-28.819 50.433,-58.8 0,-29.98 -17.663,-58.8 -50.433,-58.8 -32.77,0 -50.665,28.587 -50.665,58.8 0,30.214 17.663,58.8 50.665,58.8" style="fill:#863b8f;fill-opacity:1;fill-rule:nonzero;stroke:none" id="path224"></path>
         </g>
         <g id="g226" transform="translate(542.4663,372.2412)">
           <path d="M 0,0 H 20.917 C 33.7,-0.232 44.39,9.529 44.623,22.312 v 1.394 c 0,11.389 -6.275,23.939 -24.171,23.939 L 0,47.645 Z m 0,-49.038 c 0.232,-3.951 -2.557,-7.438 -6.74,-7.438 -3.951,-0.232 -7.437,2.557 -7.437,6.741 v 0.697 101.099 c -0.465,3.717 2.324,7.436 6.043,7.668 H -6.74 21.382 C 44.623,59.729 58.8,43.461 58.8,23.241 58.8,3.254 42.764,-12.55 23.009,-12.55 H 21.847 -0.232 Z" style="fill:#863b8f;fill-opacity:1;fill-rule:nonzero;stroke:none" id="path228"></path>
         </g>
         <g id="g230" transform="translate(632.4092,329.9434)">
           <path d="m 0,0 h 34.396 c 3.719,0 6.74,-3.021 6.74,-6.74 0,-3.719 -3.021,-6.74 -6.74,-6.74 H -6.508 c -3.951,-0.233 -7.204,2.324 -7.669,6.275 v 1.394 99.937 c -0.465,3.719 2.324,7.437 6.042,7.669 h 1.395 40.904 c 3.718,0 6.74,-3.022 6.74,-6.739 0,-3.719 -3.022,-6.741 -6.74,-6.741 H -0.233 v -37.65 h 31.376 c 3.718,0 6.739,-3.021 6.739,-6.74 0,-3.718 -3.021,-6.739 -6.739,-6.739 H -0.233 V -0.465 H 0 Z" style="fill:#863b8f;fill-opacity:1;fill-rule:nonzero;stroke:none" id="path232"></path>
         </g>
       </g>
     </g>
   </g>
 </svg>