<svg
xmlns="http://www.w3.org/2000/svg"
width="2480"
height="625"
version="1.1"
viewBox="0 0 2480 625"
>
<defs>
  <clipPath id="clipPath16" clipPathUnits="userSpaceOnUse">
    <path d="M0 1080h1920V0H0z"></path>
  </clipPath>
  <clipPath id="clipPath24" clipPathUnits="userSpaceOnUse">
    <path d="M84.615 503.626h64.44V310.767h-64.44z"></path>
  </clipPath>
  <clipPath id="clipPath40" clipPathUnits="userSpaceOnUse">
    <path d="M25.584 504.201h122.665V381.363H25.584z"></path>
  </clipPath>
  <clipPath id="clipPath56" clipPathUnits="userSpaceOnUse">
    <path d="M84.442 503.971h122.494V381.075H84.442z"></path>
  </clipPath>
  <clipPath id="clipPath72" clipPathUnits="userSpaceOnUse">
    <path d="M215.875 642.281h64.44v-193.78h-64.44z"></path>
  </clipPath>
  <clipPath id="clipPath88" clipPathUnits="userSpaceOnUse">
    <path d="M151.896 577.841h192.859v-63.544H151.896z"></path>
  </clipPath>
  <clipPath id="clipPath104" clipPathUnits="userSpaceOnUse">
    <path d="M280.315 718.452h192.859v-63.561H280.315z"></path>
  </clipPath>
  <clipPath id="clipPath120" clipPathUnits="userSpaceOnUse">
    <path d="M350.911 776.793H473.75V654.127H350.911z"></path>
  </clipPath>
  <clipPath id="clipPath136" clipPathUnits="userSpaceOnUse">
    <path d="M351.084 718.107H473.75V595.441H351.084z"></path>
  </clipPath>
  <clipPath id="clipPath152" clipPathUnits="userSpaceOnUse">
    <path d="M0 1080h1920V0H0z"></path>
  </clipPath>
  <clipPath id="clipPath184" clipPathUnits="userSpaceOnUse">
    <path d="M0 1080h1920V0H0z"></path>
  </clipPath>
  <clipPath id="clipPath216" clipPathUnits="userSpaceOnUse">
    <path d="M0 1080h1920V0H0z"></path>
  </clipPath>
</defs>
<g transform="matrix(1.33428 0 0 -1.34112 -34.135 1041.777)">
  <g>
    <g clipPath="url(#clipPath16)">
      <g>
        <g>
          <g clipPath="url(#clipPath24)" opacity="0.55">
            <g transform="translate(116.375 310.767)">
              <path
                fill="#853c8e"
                fillOpacity="1"
                fillRule="nonzero"
                stroke="none"
                d="M0 0c-17.721 0-31.76 14.269-31.76 31.76V161.1c0 17.72 14.269 31.759 32.22 31.759 17.721 0 32.22-14.268 32.22-31.759V31.76C31.99 14.269 17.491 0 0 0"
              ></path>
            </g>
          </g>
        </g>
      </g>
      <g>
        <g>
          <g clipPath="url(#clipPath40)" opacity="0.55">
            <g transform="translate(34.904 390.856)">
              <path
                fill="#853c8e"
                fillOpacity="1"
                fillRule="nonzero"
                stroke="none"
                d="M0 0c-12.428 12.428-12.428 32.68 0 45.338l58.687 58.686c12.427 12.428 32.68 12.428 45.337 0 12.428-12.427 12.428-32.68 0-45.338L45.338 0C32.68-12.658 12.428-12.658 0 0"
              ></path>
            </g>
          </g>
        </g>
      </g>
      <g>
        <g>
          <g clipPath="url(#clipPath56)" opacity="0.55">
            <g transform="translate(93.59 494.65)">
              <path
                fill="#853c8e"
                fillOpacity="1"
                fillRule="nonzero"
                stroke="none"
                d="M0 0c12.428 12.428 32.68 12.428 45.338 0l58.686-58.916c12.428-12.428 12.428-32.681 0-45.339-12.427-12.428-32.68-12.428-45.338 0L0-45.568C-12.198-32.91-12.198-12.658 0 0"
              ></path>
            </g>
          </g>
        </g>
      </g>
      <g>
        <g>
          <g clipPath="url(#clipPath72)" opacity="0.6">
            <g transform="translate(248.555 642.28)">
              <path
                fill="#56ae32"
                fillOpacity="1"
                fillRule="nonzero"
                stroke="none"
                d="M0 0c17.721 0 31.76-14.269 31.76-32.22v-129.34c0-17.721-14.269-32.22-32.22-32.22-17.721 0-32.22 14.269-32.22 32.22v129.57C-31.99-14.499-17.491 0 0 0"
              ></path>
            </g>
          </g>
        </g>
      </g>
      <g>
        <g>
          <g clipPath="url(#clipPath88)" opacity="0.6">
            <g transform="translate(151.895 545.62)">
              <path
                fill="#56ae32"
                fillOpacity="1"
                fillRule="nonzero"
                stroke="none"
                d="M0 0c0 17.721 14.269 32.22 31.76 32.22H161.1c17.721 0 31.759-14.269 31.759-31.76 0-17.72-14.268-31.759-31.759-31.759H31.99C14.269-31.99 0-17.721 0 0"
              ></path>
            </g>
          </g>
        </g>
      </g>
      <g>
        <g>
          <g clipPath="url(#clipPath104)" opacity="0.5">
            <g transform="translate(280.315 686.232)">
              <path
                fill="#009cc4"
                fillOpacity="1"
                fillRule="nonzero"
                stroke="none"
                d="M0 0c0 17.721 14.269 32.22 31.76 32.22H161.1c17.721 0 31.759-14.269 31.759-31.76 0-17.72-14.268-31.759-31.759-31.759H31.76C14.499-32.22 0-17.721 0 0"
              ></path>
            </g>
          </g>
        </g>
      </g>
      <g>
        <g>
          <g clipPath="url(#clipPath120)" opacity="0.5">
            <g transform="translate(360.405 767.472)">
              <path
                fill="#009cc4"
                fillOpacity="1"
                fillRule="nonzero"
                stroke="none"
                d="M0 0c12.428 12.428 32.68 12.428 45.338 0l58.686-58.686c12.428-12.428 12.428-32.68 0-45.338-12.427-12.428-32.68-12.428-45.338 0L0-45.338C-12.658-32.68-12.658-12.427 0 0"
              ></path>
            </g>
          </g>
        </g>
      </g>
      <g>
        <g>
          <g clipPath="url(#clipPath136)" opacity="0.5">
            <g transform="translate(464.43 708.786)">
              <path
                fill="#009cc4"
                fillOpacity="1"
                fillRule="nonzero"
                stroke="none"
                d="M0 0c12.427-12.428 12.427-32.68 0-45.338l-58.687-58.686c-12.427-12.428-32.68-12.428-45.337 0-12.428 12.427-12.428 32.68 0 45.337L-45.338 0C-32.681 12.428-12.428 12.428 0 0"
              ></path>
            </g>
          </g>
        </g>
      </g>
    </g>
  </g>
  <g>
    <g clipPath="url(#clipPath152)">
      <g transform="translate(1392.947 416.516)">
        <path
          fill="#009dc5"
          fillOpacity="1"
          fillRule="nonzero"
          stroke="none"
          d="M0 0l-22.543-62.519h44.855zm-34.164-95.521c-.697-3.253-3.718-5.345-6.972-5.345-3.486-.233-6.275 2.092-6.74 5.578v.465c.232 2.324 1.162 4.881 1.859 7.205l35.791 95.52c1.86 5.113 4.881 8.831 9.994 8.831 5.345 0 8.599-3.718 9.994-8.831l35.791-95.52c1.162-2.324 1.627-4.881 1.859-7.205 0-3.487-3.021-6.043-6.275-6.043h-.465c-3.254 0-6.042 2.092-6.972 5.345l-7.437 20.685h-53.454z"
        ></path>
      </g>
      <g transform="translate(1499.624 327.968)">
        <path
          fill="#009dc5"
          fillOpacity="1"
          fillRule="nonzero"
          stroke="none"
          d="M0 0c17.198 0 25.1 10.458 31.143 10.458 3.486 0 5.578-2.557 5.578-6.739C36.721-3.719 20.22-12.318 0-12.318c-33.467 0-50.433 28.819-50.433 58.799 0 29.982 17.199 58.8 51.363 58.8 20.452 0 33.466-10.923 33.466-16.733.233-3.486-2.091-6.276-5.578-6.74h-.232c-6.274 0-9.761 11.388-27.656 11.388-25.566 0-36.256-24.171-36.256-46.482S-24.403 0 0 0"
        ></path>
      </g>
      <g transform="translate(1576.784 418.607)">
        <path
          fill="#009dc5"
          fillOpacity="1"
          fillRule="nonzero"
          stroke="none"
          d="M0 0h-21.614a6.744 6.744 0 00-6.74 6.74 6.744 6.744 0 006.74 6.739h57.405a6.744 6.744 0 006.74-6.739A6.744 6.744 0 0035.791 0H14.177v-95.521c.232-3.951-2.557-7.437-6.74-7.437C3.486-103.19 0-100.401 0-96.218v.697z"
        ></path>
      </g>
      <g transform="translate(1650.226 323.087)">
        <path
          fill="#009dc5"
          fillOpacity="1"
          fillRule="nonzero"
          stroke="none"
          d="M0 0c.232-3.951-2.557-7.437-6.74-7.437-3.951-.233-7.438 2.556-7.438 6.74V102.028c-.232 3.951 2.557 7.437 6.741 7.437 3.951.232 7.437-2.557 7.437-6.739v-.698z"
        ></path>
      </g>
      <g transform="translate(1722.505 327.968)">
        <path
          fill="#009dc5"
          fillOpacity="1"
          fillRule="nonzero"
          stroke="none"
          d="M0 0c26.03 0 35.326 24.17 35.326 46.481 0 22.312-9.296 46.483-35.326 46.483s-35.326-24.171-35.326-46.483C-35.326 24.17-26.03 0 0 0m0 105.049c33.002 0 50.433-28.819 50.433-58.8 0-29.98-17.896-58.8-50.433-58.8-32.77 0-50.433 28.82-50.433 58.8 0 29.981 17.431 58.8 50.433 58.8"
        ></path>
      </g>
      <g transform="translate(1809.193 323.087)">
        <path
          fill="#009dc5"
          fillOpacity="1"
          fillRule="nonzero"
          stroke="none"
          d="M0 0c.232-3.951-2.556-7.437-6.739-7.437-3.951-.233-7.438 2.556-7.438 6.74v102.028c0 5.577 1.86 8.599 6.276 8.599 4.416 0 6.042-1.86 9.993-7.437l58.567-83.668h.233v83.668c-.233 3.95 2.556 7.437 6.74 7.437 3.95.232 7.436-2.557 7.436-6.74V1.162c0-5.578-1.859-8.599-6.274-8.599-4.416 0-6.043 1.859-9.994 7.437L.232 83.668H0z"
        ></path>
      </g>
    </g>
  </g>
  <g>
    <g clipPath="url(#clipPath184)">
      <g transform="translate(760.291 324.249)">
        <path
          fill="#56af31"
          fillOpacity="1"
          fillRule="nonzero"
          stroke="none"
          d="M0 0c0-5.578-2.557-8.6-7.205-8.6-4.416 0-7.204 3.022-7.204 8.6v99.937c0 5.577 2.556 8.598 7.204 8.598 4.416 0 7.205-3.021 7.205-8.598V56.011h60.892v43.926c0 5.577 2.556 8.598 7.204 8.598s7.205-3.021 7.205-8.598V-.232c0-5.579-2.557-8.6-7.205-8.6s-7.204 3.021-7.204 8.6v44.158H0z"
        ></path>
      </g>
      <g transform="translate(876.496 329.827)">
        <path
          fill="#56af31"
          fillOpacity="1"
          fillRule="nonzero"
          stroke="none"
          d="M0 0h34.396a6.744 6.744 0 006.74-6.74 6.744 6.744 0 00-6.74-6.74H-6.508c-3.95-.233-7.204 2.324-7.669 6.275V94.126c-.465 3.719 2.324 7.437 6.043 7.669h42.298a6.745 6.745 0 006.74-6.739 6.745 6.745 0 00-6.74-6.741H-.232v-37.65h31.375a6.745 6.745 0 006.74-6.74 6.745 6.745 0 00-6.74-6.739H-.232V-.465H0z"
        ></path>
      </g>
      <g transform="translate(982.01 416.516)">
        <path
          fill="#56af31"
          fillOpacity="1"
          fillRule="nonzero"
          stroke="none"
          d="M0 0h-.232l-22.311-62.519h44.622zm-34.629-95.521c-.697-3.253-3.718-5.345-6.972-5.345-3.486-.233-6.275 2.092-6.74 5.578v.465c.233 2.324 1.162 4.881 1.859 7.205l35.792 95.52c1.859 5.113 4.88 8.831 9.993 8.831s8.599-3.718 9.994-8.831l35.791-95.52c1.162-2.324 1.627-4.881 1.859-7.205 0-3.487-3.021-6.043-6.275-6.043h-.465c-3.254 0-6.043 2.092-6.973 5.345l-7.436 20.685h-53.455z"
        ></path>
      </g>
      <g transform="translate(1061.262 329.827)">
        <path
          fill="#56af31"
          fillOpacity="1"
          fillRule="nonzero"
          stroke="none"
          d="M0 0h30.678a6.745 6.745 0 006.74-6.74 6.745 6.745 0 00-6.74-6.74H-6.508c-3.95-.233-7.204 2.324-7.669 6.275V95.288c-.232 3.95 2.557 7.437 6.74 7.437 3.951.232 7.437-2.557 7.437-6.74v-.697z"
        ></path>
      </g>
      <g transform="translate(1124.477 418.607)">
        <path
          fill="#56af31"
          fillOpacity="1"
          fillRule="nonzero"
          stroke="none"
          d="M0 0h-21.614a6.744 6.744 0 00-6.74 6.74 6.744 6.744 0 006.74 6.739h57.405A6.743 6.743 0 0042.53 6.74c0-3.719-3.02-6.74-6.739-6.74H14.177v-95.521c.232-3.951-2.557-7.437-6.74-7.437C3.486-103.19 0-100.401 0-96.218v.697z"
        ></path>
      </g>
      <g transform="translate(1198.151 324.249)">
        <path
          fill="#56af31"
          fillOpacity="1"
          fillRule="nonzero"
          stroke="none"
          d="M0 0c0-5.578-2.557-8.6-7.205-8.6-4.649 0-7.205 3.022-7.205 8.6v99.937c0 5.577 2.556 8.598 7.205 8.598 4.648 0 7.205-3.021 7.205-8.598V56.011h60.891v43.926c0 5.577 2.556 8.598 7.205 8.598 4.648 0 7.205-3.021 7.205-8.598V-.232c0-5.579-2.557-8.6-7.205-8.6-4.649 0-7.205 3.021-7.205 8.6v44.158H0z"
        ></path>
      </g>
    </g>
  </g>
  <g>
    <g clipPath="url(#clipPath216)">
      <g transform="translate(308.197 324.365)">
        <path
          fill="#863b8f"
          fillOpacity="1"
          fillRule="nonzero"
          stroke="none"
          d="M0 0c0-5.578-2.557-8.6-7.205-8.6s-7.204 3.022-7.204 8.6v99.937c0 5.577 2.556 8.598 7.204 8.598S0 105.514 0 99.937V56.011h60.892v43.926c0 5.577 2.556 8.598 7.204 8.598s7.205-3.021 7.205-8.598V-.232c0-5.579-2.557-8.6-7.205-8.6s-7.204 3.021-7.204 8.6v44.158H0z"
        ></path>
      </g>
      <g transform="translate(455.545 328.084)">
        <path
          fill="#863b8f"
          fillOpacity="1"
          fillRule="nonzero"
          stroke="none"
          d="M0 0c26.03 0 35.327 24.171 35.327 46.481 0 22.312-9.297 46.483-35.327 46.483-26.03 0-35.326-24.171-35.326-46.483C-35.559 24.171-25.797 0 0 0m0 105.049c33.002 0 50.433-28.819 50.433-58.8 0-29.98-17.663-58.8-50.433-58.8-32.77 0-50.665 28.587-50.665 58.8 0 30.214 17.663 58.8 50.665 58.8"
        ></path>
      </g>
      <g transform="translate(542.466 372.241)">
        <path
          fill="#863b8f"
          fillOpacity="1"
          fillRule="nonzero"
          stroke="none"
          d="M0 0h20.917C33.7-.232 44.39 9.529 44.623 22.312v1.394c0 11.389-6.275 23.939-24.171 23.939H0zm0-49.038c.232-3.951-2.557-7.438-6.74-7.438-3.951-.232-7.437 2.557-7.437 6.741V52.061c-.465 3.717 2.324 7.436 6.043 7.668h29.516c23.241 0 37.418-16.268 37.418-36.488 0-19.987-16.036-35.791-35.791-35.791H-.232z"
        ></path>
      </g>
      <g transform="translate(632.41 329.943)">
        <path
          fill="#863b8f"
          fillOpacity="1"
          fillRule="nonzero"
          stroke="none"
          d="M0 0h34.396a6.744 6.744 0 006.74-6.74 6.744 6.744 0 00-6.74-6.74H-6.508c-3.951-.233-7.204 2.324-7.669 6.275V94.126c-.465 3.719 2.324 7.437 6.042 7.669H34.164a6.745 6.745 0 006.74-6.739 6.746 6.746 0 00-6.74-6.741H-.233v-37.65h31.376a6.744 6.744 0 006.739-6.74 6.744 6.744 0 00-6.739-6.739H-.233V-.465H0z"
        ></path>
      </g>
    </g>
  </g>
</g>
</svg>