<svg
      xmlns="http://www.w3.org/2000/svg"
      width="533.333"
      height="533.333"
      version="1.1"
      viewBox="0 0 533.333 533.333"
    >
      <defs>
        <clipPath id="clipPath16" clipPathUnits="userSpaceOnUse">
          <path d="M0 400h400V0H0z"></path>
        </clipPath>
        <clipPath id="clipPath24" clipPathUnits="userSpaceOnUse">
          <path d="M73.424 175.667h49.823V26.554H73.424z"></path>
        </clipPath>
        <clipPath id="clipPath40" clipPathUnits="userSpaceOnUse">
          <path d="M27.783 176.112h94.841V81.137H27.783z"></path>
        </clipPath>
        <clipPath id="clipPath56" clipPathUnits="userSpaceOnUse">
          <path d="M73.29 175.934H168v-95.02H73.291z"></path>
        </clipPath>
        <clipPath id="clipPath72" clipPathUnits="userSpaceOnUse">
          <path d="M0 400h400V0H0z"></path>
        </clipPath>
        <clipPath id="clipPath80" clipPathUnits="userSpaceOnUse">
          <path d="M174.911 282.87h49.823V133.046h-49.823z"></path>
        </clipPath>
        <clipPath id="clipPath96" clipPathUnits="userSpaceOnUse">
          <path d="M125.443 233.047h149.113v-49.129H125.443z"></path>
        </clipPath>
        <clipPath id="clipPath112" clipPathUnits="userSpaceOnUse">
          <path d="M0 400h400V0H0z"></path>
        </clipPath>
        <clipPath id="clipPath120" clipPathUnits="userSpaceOnUse">
          <path d="M224.734 341.764h149.113v-49.143H224.734z"></path>
        </clipPath>
        <clipPath id="clipPath136" clipPathUnits="userSpaceOnUse">
          <path d="M279.316 386.871h94.975V292.03h-94.975z"></path>
        </clipPath>
        <clipPath id="clipPath152" clipPathUnits="userSpaceOnUse">
          <path d="M279.45 341.497h94.841v-94.842H279.45z"></path>
        </clipPath>
      </defs>
      <g transform="matrix(1.33333 0 0 -1.33333 0 533.333)">
        <g>
          <g clipPath="url(#clipPath16)">
            <g>
              <g>
                <g clipPath="url(#clipPath24)" opacity="0.55">
                  <g transform="translate(97.98 26.554)">
                    <path
                      fill="#7c359d"
                      fillOpacity="1"
                      fillRule="nonzero"
                      stroke="none"
                      d="M0 0c-13.702 0-24.556 11.032-24.556 24.556v100.002c0 13.701 11.033 24.555 24.912 24.555 13.701 0 24.911-11.032 24.911-24.555V24.556C24.733 11.032 13.523 0 0 0"
                    ></path>
                  </g>
                </g>
              </g>
            </g>
            <g>
              <g>
                <g clipPath="url(#clipPath40)" opacity="0.55">
                  <g transform="translate(34.99 88.477)">
                    <path
                      fill="#7c359d"
                      fillOpacity="1"
                      fillRule="nonzero"
                      stroke="none"
                      d="M0 0c-9.608 9.608-9.608 25.268 0 35.054l45.375 45.375c9.608 9.608 25.267 9.608 35.054 0 9.609-9.609 9.609-25.268 0-35.054L35.054 0C25.268-9.786 9.609-9.786 0 0"
                    ></path>
                  </g>
                </g>
              </g>
            </g>
            <g>
              <g>
                <g clipPath="url(#clipPath56)" opacity="0.55">
                  <g transform="translate(80.364 168.727)">
                    <path
                      fill="#7c359d"
                      fillOpacity="1"
                      fillRule="nonzero"
                      stroke="none"
                      d="M0 0c9.609 9.608 25.268 9.608 35.054 0l45.375-45.553c9.608-9.608 9.608-25.267 0-35.053-9.609-9.61-25.268-9.61-35.054 0L0-35.232C-9.431-25.445-9.431-9.787 0 0"
                    ></path>
                  </g>
                </g>
              </g>
            </g>
          </g>
        </g>
        <g>
          <g clipPath="url(#clipPath72)">
            <g>
              <g>
                <g clipPath="url(#clipPath80)" opacity="0.6">
                  <g transform="translate(200.178 282.87)">
                    <path
                      fill="#50be39"
                      fillOpacity="1"
                      fillRule="nonzero"
                      stroke="none"
                      d="M0 0c13.701 0 24.556-11.032 24.556-24.912v-100.002c0-13.701-11.033-24.911-24.911-24.911-13.702 0-24.912 11.033-24.912 24.911v100.18C-24.733-11.21-13.523 0 0 0"
                    ></path>
                  </g>
                </g>
              </g>
            </g>
            <g>
              <g>
                <g clipPath="url(#clipPath96)" opacity="0.6">
                  <g transform="translate(125.443 208.136)">
                    <path
                      fill="#50be39"
                      fillOpacity="1"
                      fillRule="nonzero"
                      stroke="none"
                      d="M0 0c0 13.702 11.032 24.912 24.556 24.912h100.002c13.701 0 24.555-11.033 24.555-24.556 0-13.702-11.032-24.555-24.555-24.555H24.734C11.032-24.733 0-13.701 0 0"
                    ></path>
                  </g>
                </g>
              </g>
            </g>
          </g>
        </g>
        <g>
          <g clipPath="url(#clipPath112)">
            <g>
              <g>
                <g clipPath="url(#clipPath120)" opacity="0.5">
                  <g transform="translate(224.733 316.853)">
                    <path
                      fill="#40a2c7"
                      fillOpacity="1"
                      fillRule="nonzero"
                      stroke="none"
                      d="M0 0c0 13.701 11.032 24.911 24.556 24.911h100.002c13.701 0 24.555-11.032 24.555-24.555 0-13.702-11.032-24.556-24.555-24.556H24.556C11.21-24.912 0-13.702 0 0"
                    ></path>
                  </g>
                </g>
              </g>
            </g>
            <g>
              <g>
                <g clipPath="url(#clipPath136)" opacity="0.5">
                  <g transform="translate(286.656 379.665)">
                    <path
                      fill="#40a2c7"
                      fillOpacity="1"
                      fillRule="nonzero"
                      stroke="none"
                      d="M0 0c9.608 9.608 25.268 9.608 35.054 0l45.375-45.375c9.608-9.608 9.608-25.267 0-35.054-9.609-9.608-25.268-9.608-35.054 0L0-35.054C-9.786-25.268-9.786-9.609 0 0"
                    ></path>
                  </g>
                </g>
              </g>
            </g>
            <g>
              <g>
                <g clipPath="url(#clipPath152)" opacity="0.5">
                  <g transform="translate(367.085 334.29)">
                    <path
                      fill="#40a2c7"
                      fillOpacity="1"
                      fillRule="nonzero"
                      stroke="none"
                      d="M0 0c9.608-9.609 9.608-25.268 0-35.054l-45.375-45.375c-9.608-9.608-25.267-9.608-35.054 0-9.608 9.609-9.608 25.268 0 35.054L-35.054 0C-25.268 9.608-9.608 9.608 0 0"
                    ></path>
                  </g>
                </g>
              </g>
            </g>
          </g>
        </g>
      </g>
    </svg>